<svg width="118" height="40" viewBox="0 0 118 40" fill="none" xmlns="http://www.w3.org/2000/svg">
<path d="M70.3908 0.49793H63.6143C63.3606 0.49793 63.1173 0.598567 62.9379 0.777703C62.7586 0.95684 62.6578 1.1998 62.6578 1.45314V14.6176L56.861 1.07684C56.7871 0.904714 56.6642 0.758067 56.5075 0.655138C56.3509 0.55221 56.1674 0.497541 55.9799 0.49793H50.183C49.9375 0.509833 49.706 0.615702 49.5365 0.793564C49.367 0.971426 49.2727 1.20762 49.2729 1.45314V38.5036C49.2729 38.629 49.2977 38.7532 49.3458 38.8691C49.3938 38.985 49.4643 39.0903 49.5531 39.179C49.6419 39.2677 49.7473 39.3381 49.8634 39.3861C49.9794 39.4341 50.1038 39.4588 50.2294 39.4588H57.2436C57.4972 39.4588 57.7405 39.3582 57.9199 39.179C58.0993 38.9999 58.2001 38.7569 58.2001 38.5036V24.3144L63.9621 38.8741C64.0353 39.0467 64.1581 39.1937 64.3149 39.2968C64.4717 39.3998 64.6555 39.4542 64.8432 39.453H70.385C70.6386 39.453 70.8819 39.3524 71.0613 39.1732C71.2407 38.9941 71.3414 38.7511 71.3414 38.4978V1.44735C71.3399 1.19502 71.2385 0.953539 71.0592 0.775654C70.88 0.597768 70.6376 0.497925 70.385 0.49793H70.3908Z" fill="black"/>
<path d="M96.3141 23.2144H86.4595C86.2059 23.2144 85.9626 23.3151 85.7832 23.4942C85.6038 23.6733 85.5031 23.9163 85.5031 24.1696V28.9746C85.5031 29.0998 85.5278 29.2237 85.576 29.3393C85.6241 29.4549 85.6947 29.5598 85.7836 29.648C85.8725 29.7362 85.9779 29.8061 86.094 29.8534C86.21 29.9008 86.3342 29.9248 86.4595 29.924H87.874C87.8501 30.1349 87.8035 30.3426 87.7348 30.5435C87.6035 31.0387 87.3617 31.4978 87.0276 31.8866C86.6588 32.1467 86.2184 32.2864 85.7668 32.2864C85.3153 32.2864 84.8748 32.1467 84.506 31.8866C84.1701 31.5311 83.9428 31.0872 83.851 30.6072C83.6954 29.9196 83.6196 29.2164 83.6249 28.5115V11.3756C83.6204 10.6896 83.6708 10.0043 83.7756 9.32629C83.83 8.85384 84.0168 8.40633 84.3147 8.03532C84.4758 7.89213 84.6657 7.785 84.8717 7.7211C85.0776 7.6572 85.2949 7.63801 85.5089 7.66481C85.9195 7.62655 86.3304 7.7353 86.6682 7.97164C86.9427 8.30091 87.1141 8.70359 87.161 9.12946C87.2645 9.80569 87.3148 10.489 87.3117 11.173V21.0146C87.3109 21.1397 87.3349 21.2638 87.3824 21.3797C87.4298 21.4955 87.4997 21.6009 87.5881 21.6896C87.6764 21.7784 87.7815 21.8489 87.8972 21.8969C88.0129 21.945 88.137 21.9698 88.2624 21.9698H96.2794C96.533 21.9698 96.7763 21.8691 96.9557 21.69C97.1351 21.5109 97.2358 21.2679 97.2358 21.0146V11.7925C97.2745 9.72826 96.9062 7.67662 96.1518 5.7544C95.407 3.95737 94.0831 2.45995 92.3897 1.49939C90.6506 0.509444 88.3319 0 85.4335 0C82.5351 0 80.0309 0.578913 78.257 1.73674C76.4455 2.89768 75.0886 4.64522 74.4137 6.68645C73.6632 8.98588 73.3046 11.3948 73.3529 13.8129V26.2479C73.3165 28.6178 73.649 30.979 74.3384 33.247C74.9382 35.2351 76.1665 36.9757 77.8397 38.2083C79.4802 39.3661 81.7062 39.9913 84.4654 39.9913C86.0265 40.067 87.5713 39.6453 88.8768 38.7872C89.2342 38.5298 89.5697 38.2432 89.8797 37.9304L89.984 38.6367C90.0175 38.8627 90.1315 39.0691 90.305 39.218C90.4786 39.3669 90.7001 39.4482 90.9289 39.4472H96.3315C96.4568 39.4479 96.5811 39.4239 96.6971 39.3766C96.8131 39.3292 96.9186 39.2594 97.0075 39.1711C97.0964 39.0829 97.1669 38.978 97.2151 38.8624C97.2632 38.7468 97.288 38.6229 97.288 38.4977V24.1754C97.288 23.9221 97.1872 23.6791 97.0079 23.5C96.8285 23.3209 96.5852 23.2202 96.3315 23.2202L96.3141 23.2144Z" fill="black"/>
<path d="M117.061 32.0081H109.45V23.9843H114.957C115.084 23.9882 115.211 23.9665 115.329 23.9205C115.448 23.8746 115.556 23.8052 115.648 23.7167C115.739 23.6281 115.812 23.5222 115.861 23.405C115.911 23.2879 115.936 23.1621 115.936 23.0349V17.3673C115.936 17.2422 115.912 17.1182 115.863 17.0027C115.815 16.8871 115.745 16.7822 115.656 16.6939C115.567 16.6057 115.461 16.5359 115.345 16.4885C115.229 16.4411 115.105 16.4172 114.98 16.4179H109.473V7.98315H117.009C117.134 7.98315 117.259 7.95844 117.375 7.91044C117.491 7.86243 117.596 7.79207 117.685 7.70337C117.774 7.61468 117.844 7.50937 117.892 7.39348C117.94 7.27759 117.965 7.15338 117.965 7.02794V1.45301C117.965 1.32408 117.939 1.19647 117.889 1.07785C117.838 0.959241 117.764 0.852081 117.671 0.762831C117.578 0.673581 117.467 0.604088 117.347 0.55854C117.226 0.512991 117.097 0.492329 116.968 0.497798H100.285C100.159 0.497798 100.035 0.522506 99.9189 0.570509C99.8029 0.618513 99.6974 0.688873 99.6086 0.777572C99.5198 0.866271 99.4493 0.971572 99.4013 1.08746C99.3532 1.20335 99.3285 1.32757 99.3285 1.45301V38.5035C99.33 38.7558 99.4314 38.9973 99.6106 39.1752C99.7898 39.353 100.032 39.4529 100.285 39.4529H117.044C117.297 39.4529 117.54 39.3522 117.72 39.1731C117.899 38.994 118 38.751 118 38.4977V32.9633C118 32.7099 117.899 32.467 117.72 32.2878C117.54 32.1087 117.297 32.0081 117.044 32.0081H117.061Z" fill="black"/>
<path d="M21.3323 27.9094C21.9444 27.9076 22.5561 27.9424 23.1641 28.0136C23.6666 28.059 24.1532 28.2131 24.5901 28.4651C24.7723 28.57 24.9224 28.7224 25.0246 28.9059C25.1267 29.0895 25.1769 29.2973 25.1698 29.5072C25.1827 29.7251 25.1355 29.9423 25.0332 30.1352C24.931 30.3282 24.7778 30.4894 24.5901 30.6013C24.1532 30.8533 23.6666 31.0074 23.1641 31.0529C22.5561 31.124 21.9444 31.1588 21.3323 31.1571H10.556C10.4966 31.1571 10.4378 31.1454 10.383 31.1227C10.3281 31.1 10.2783 31.0667 10.2363 31.0248C10.1943 30.9829 10.161 30.9331 10.1383 30.8783C10.1156 30.8235 10.1039 30.7648 10.1039 30.7055V28.3667C10.1031 28.3072 10.1143 28.2481 10.1367 28.193C10.1591 28.1379 10.1924 28.0878 10.2346 28.0457C10.2767 28.0036 10.3269 27.9704 10.3821 27.9479C10.4373 27.9255 10.4964 27.9144 10.556 27.9152L21.3323 27.9094ZM10.1039 8.80523C10.1031 8.74571 10.1143 8.68664 10.1367 8.63151C10.1591 8.57637 10.1924 8.52628 10.2346 8.4842C10.2767 8.44211 10.3269 8.40888 10.3821 8.38646C10.4373 8.36404 10.4964 8.35289 10.556 8.35367H21.512C22.1184 8.35193 22.7243 8.38672 23.3264 8.45788C23.8209 8.50418 24.3004 8.65199 24.735 8.89206C24.9166 8.98867 25.0673 9.13439 25.1698 9.31253C25.2723 9.49068 25.3225 9.69405 25.3147 9.89937C25.325 10.1121 25.2764 10.3236 25.1741 10.5105C25.0718 10.6974 24.9199 10.8525 24.735 10.9588C24.3016 11.2015 23.8215 11.3495 23.3264 11.393C22.7243 11.4645 22.1184 11.4993 21.512 11.4972H10.556C10.4964 11.498 10.4373 11.4868 10.3821 11.4644C10.3269 11.442 10.2767 11.4087 10.2346 11.3666C10.1924 11.3246 10.1591 11.2745 10.1367 11.2193C10.1143 11.1642 10.1031 11.1051 10.1039 11.0456V8.80523ZM26.0161 19.0462C31.0362 18.9652 35.065 15.0459 35.065 10.2409V9.26257C35.065 4.44022 31.0072 0.515186 25.9756 0.457294C22.6076 0.439927 12.5617 0.532553 8.27787 0.497818H0.956492C0.830397 0.497816 0.705546 0.522714 0.589122 0.571079C0.472697 0.619444 0.366998 0.690322 0.278105 0.779636C0.189212 0.868949 0.118879 0.974934 0.0711543 1.09149C0.0234292 1.20805 -0.000746646 1.33289 1.75678e-05 1.45881V38.5093C1.75678e-05 38.7626 0.100789 39.0056 0.280163 39.1847C0.459536 39.3638 0.70282 39.4645 0.956492 39.4645H7.79674L25.8886 39.4124C30.9724 39.3313 35.0534 35.36 35.0534 30.4392V29.4609C35.0107 27.0557 34.0204 24.7642 32.2972 23.0834C30.574 21.4025 28.2568 20.4678 25.848 20.4819C22.8511 20.4472 12.0864 20.3835 10.3415 20.3661C10.278 20.3646 10.2175 20.3383 10.1731 20.2929C10.1287 20.2475 10.1039 20.1865 10.1039 20.123V19.4457C10.1053 19.3832 10.1309 19.3236 10.1751 19.2794C10.2194 19.2353 10.279 19.2098 10.3415 19.2083L25.9929 19.052L26.0161 19.0462Z" fill="black"/>
<path d="M46.247 11.9603H37.1344C36.8719 11.9603 36.6591 12.1728 36.6591 12.435V39.1055C36.6591 39.3677 36.8719 39.5803 37.1344 39.5803H46.247C46.5095 39.5803 46.7223 39.3677 46.7223 39.1055V12.435C46.7223 12.1728 46.5095 11.9603 46.247 11.9603Z" fill="black"/>
<path d="M46.247 0.509376H37.1344C36.8719 0.509376 36.6591 0.72191 36.6591 0.984085V10.2062C36.6591 10.4683 36.8719 10.6809 37.1344 10.6809H46.247C46.5095 10.6809 46.7223 10.4683 46.7223 10.2062V0.984085C46.7223 0.72191 46.5095 0.509376 46.247 0.509376Z" fill="black"/>
</svg>
