<svg width="165" height="56" viewBox="0 0 165 56" fill="none" xmlns="http://www.w3.org/2000/svg">
<path d="M98.4278 0.697102H88.9522C88.5975 0.697102 88.2573 0.837994 88.0065 1.08878C87.7556 1.33958 87.6147 1.67972 87.6147 2.03439V20.4647L79.509 1.50758C79.4057 1.2666 79.2338 1.06129 79.0148 0.917194C78.7957 0.773094 78.5391 0.696558 78.2769 0.697102H70.1712C69.8279 0.713767 69.5041 0.861983 69.2671 1.11099C69.0302 1.36 68.8982 1.69067 68.8986 2.03439V53.905C68.8986 54.0807 68.9332 54.2545 69.0004 54.4168C69.0676 54.579 69.1662 54.7265 69.2903 54.8506C69.4145 54.9748 69.562 55.0733 69.7242 55.1405C69.8865 55.2077 70.0604 55.2423 70.2361 55.2423H80.044C80.3987 55.2423 80.7389 55.1014 80.9897 54.8506C81.2405 54.5998 81.3814 54.2597 81.3814 53.905V34.0402L89.4385 54.4237C89.5409 54.6654 89.7126 54.8713 89.9318 55.0155C90.1511 55.1597 90.4081 55.2358 90.6706 55.2342H98.4196C98.7744 55.2342 99.1145 55.0933 99.3654 54.8425C99.6162 54.5917 99.7571 54.2516 99.7571 53.8969V2.02629C99.755 1.67302 99.6131 1.33496 99.3625 1.08591C99.1119 0.836875 98.773 0.697095 98.4196 0.697102H98.4278Z" fill="white"/>
<path d="M134.677 32.5002H120.897C120.542 32.5002 120.202 32.6411 119.951 32.8919C119.7 33.1427 119.559 33.4828 119.559 33.8375V40.5645C119.559 40.7397 119.594 40.9132 119.661 41.075C119.729 41.2368 119.827 41.3837 119.952 41.5072C120.076 41.6307 120.223 41.7285 120.386 41.7948C120.548 41.8611 120.722 41.8947 120.897 41.8936H122.875C122.841 42.1889 122.776 42.4797 122.68 42.7609C122.496 43.4541 122.158 44.0969 121.691 44.6412C121.175 45.0054 120.56 45.2009 119.928 45.2009C119.297 45.2009 118.681 45.0054 118.165 44.6412C117.695 44.1436 117.378 43.5221 117.249 42.85C117.032 41.8874 116.926 40.9029 116.933 39.9161V15.9259C116.927 14.9655 116.997 14.006 117.144 13.0568C117.22 12.3954 117.481 11.7689 117.898 11.2494C118.123 11.049 118.389 10.899 118.676 10.8095C118.964 10.7201 119.268 10.6932 119.567 10.7307C120.142 10.6772 120.716 10.8294 121.189 11.1603C121.572 11.6213 121.812 12.185 121.878 12.7812C122.022 13.728 122.093 14.6845 122.088 15.6422V29.4204C122.087 29.5956 122.121 29.7693 122.187 29.9315C122.254 30.0937 122.351 30.2412 122.475 30.3655C122.598 30.4898 122.745 30.5884 122.907 30.6557C123.069 30.723 123.242 30.7577 123.418 30.7577H134.628C134.983 30.7577 135.323 30.6168 135.574 30.366C135.824 30.1152 135.965 29.775 135.965 29.4204V16.5095C136.019 13.6196 135.504 10.7473 134.45 8.05616C133.408 5.54032 131.557 3.44392 129.189 2.09914C126.757 0.713221 123.515 0 119.462 0C115.409 0 111.908 0.810479 109.427 2.43144C106.894 4.05675 104.997 6.50331 104.053 9.36103C103.004 12.5802 102.502 15.9528 102.57 19.338V36.7471C102.519 40.065 102.984 43.3706 103.948 46.5458C104.786 49.3291 106.504 51.766 108.844 53.4916C111.138 55.1126 114.25 55.9879 118.108 55.9879C120.291 56.0938 122.451 55.5035 124.277 54.3021C124.777 53.9417 125.246 53.5404 125.679 53.1026L125.825 54.0914C125.872 54.4078 126.031 54.6967 126.274 54.9052C126.517 55.1136 126.826 55.2275 127.146 55.226H134.701C134.876 55.2271 135.05 55.1935 135.212 55.1272C135.374 55.0609 135.522 54.9631 135.646 54.8396C135.77 54.7161 135.869 54.5692 135.936 54.4074C136.004 54.2456 136.038 54.0721 136.038 53.8968V33.8456C136.038 33.4909 135.897 33.1508 135.647 32.9C135.396 32.6492 135.056 32.5083 134.701 32.5083L134.677 32.5002Z" fill="white"/>
<path d="M163.687 44.8113H153.044V33.578H160.745C160.922 33.5835 161.1 33.5531 161.266 33.4887C161.432 33.4244 161.583 33.3273 161.711 33.2034C161.839 33.0794 161.94 32.931 162.009 32.7671C162.079 32.6031 162.114 32.4269 162.114 32.2489V24.3143C162.114 24.139 162.08 23.9655 162.012 23.8037C161.945 23.6419 161.846 23.495 161.722 23.3715C161.598 23.248 161.45 23.1502 161.288 23.0839C161.126 23.0176 160.952 22.984 160.777 22.9851H153.076V11.1764H163.614C163.79 11.1764 163.963 11.1418 164.126 11.0746C164.288 11.0074 164.435 10.9089 164.56 10.7847C164.684 10.6605 164.782 10.5131 164.85 10.3509C164.917 10.1886 164.951 10.0147 164.951 9.83912V2.03421C164.952 1.85371 164.915 1.67506 164.844 1.509C164.774 1.34294 164.67 1.19291 164.54 1.06796C164.41 0.943013 164.255 0.845724 164.086 0.781955C163.918 0.718187 163.738 0.68926 163.557 0.696918H140.229C140.053 0.696918 139.879 0.731508 139.717 0.798713C139.555 0.865918 139.407 0.964422 139.283 1.0886C139.159 1.21278 139.061 1.3602 138.993 1.52245C138.926 1.6847 138.891 1.85859 138.891 2.03421V53.9049C138.894 54.2581 139.035 54.5962 139.286 54.8452C139.537 55.0943 139.876 55.234 140.229 55.234H163.663C164.017 55.234 164.357 55.0931 164.608 54.8424C164.859 54.5916 165 54.2514 165 53.8967V46.1486C165 45.7939 164.859 45.4538 164.608 45.203C164.357 44.9522 164.017 44.8113 163.663 44.8113H163.687Z" fill="white"/>
<path d="M29.8291 39.0731C30.685 39.0707 31.5403 39.1194 32.3905 39.219C33.0931 39.2826 33.7735 39.4983 34.3845 39.8512C34.6392 39.998 34.8492 40.2113 34.992 40.4683C35.1348 40.7253 35.205 41.0162 35.1951 41.31C35.2131 41.6151 35.147 41.9192 35.0041 42.1893C34.8612 42.4594 34.6469 42.6851 34.3845 42.8418C33.7735 43.1947 33.0931 43.4104 32.3905 43.474C31.5403 43.5736 30.685 43.6223 29.8291 43.6199H14.7605C14.6775 43.6199 14.5953 43.6035 14.5186 43.5718C14.4419 43.54 14.3722 43.4934 14.3135 43.4347C14.2548 43.376 14.2082 43.3064 14.1764 43.2296C14.1446 43.153 14.1283 43.0707 14.1283 42.9877V39.7134C14.1272 39.6301 14.1428 39.5474 14.1742 39.4702C14.2056 39.393 14.2521 39.3229 14.311 39.264C14.37 39.205 14.4401 39.1585 14.5173 39.1271C14.5945 39.0957 14.6772 39.0801 14.7605 39.0812L29.8291 39.0731ZM14.1283 12.3273C14.1272 12.244 14.1428 12.1613 14.1742 12.0841C14.2056 12.0069 14.2521 11.9368 14.311 11.8779C14.37 11.819 14.4401 11.7724 14.5173 11.741C14.5945 11.7097 14.6772 11.6941 14.7605 11.6951H30.0804C30.9282 11.6927 31.7754 11.7414 32.6174 11.841C33.3089 11.9058 33.9794 12.1128 34.5871 12.4489C34.841 12.5841 35.0517 12.7881 35.1951 13.0375C35.3384 13.2869 35.4086 13.5717 35.3977 13.8591C35.4121 14.157 35.3441 14.453 35.201 14.7147C35.058 14.9764 34.8456 15.1935 34.5871 15.3423C33.9811 15.6822 33.3097 15.8894 32.6174 15.9502C31.7755 16.0503 30.9282 16.099 30.0804 16.096H14.7605C14.6772 16.0971 14.5945 16.0815 14.5173 16.0501C14.4401 16.0188 14.37 15.9722 14.311 15.9133C14.2521 15.8544 14.2056 15.7843 14.1742 15.7071C14.1428 15.6299 14.1272 15.5472 14.1283 15.4639V12.3273ZM36.3785 26.6647C43.398 26.5512 49.0315 21.0643 49.0315 14.3373V12.9676C49.0315 6.21631 43.3575 0.72126 36.3218 0.640212C31.6123 0.615898 17.5651 0.745574 11.575 0.696946H1.33747C1.16115 0.696942 0.986568 0.731799 0.823772 0.79951C0.660975 0.867222 0.513175 0.966451 0.388875 1.09149C0.264576 1.21653 0.16623 1.36491 0.0994955 1.52809C0.0327612 1.69128 -0.00104404 1.86604 2.45651e-05 2.04234V53.913C2.45651e-05 54.2676 0.140933 54.6078 0.391753 54.8586C0.642572 55.1094 0.982756 55.2503 1.33747 55.2503H10.9022L36.2002 55.1773C43.3089 55.0639 49.0153 49.504 49.0153 42.6149V41.2452C48.9556 37.8779 47.5709 34.6699 45.1613 32.3167C42.7517 29.9635 39.5116 28.6549 36.1434 28.6747C31.9528 28.626 16.9004 28.5369 14.4606 28.5126C14.3718 28.5105 14.2872 28.4737 14.2251 28.4101C14.163 28.3464 14.1283 28.2611 14.1283 28.1722V27.2239C14.1304 27.1364 14.166 27.0531 14.2279 26.9912C14.2898 26.9293 14.3731 26.8937 14.4606 26.8916L36.3461 26.6728L36.3785 26.6647Z" fill="white"/>
<path d="M64.6674 16.7444H51.9252C51.5581 16.7444 51.2606 17.042 51.2606 17.409V54.7478C51.2606 55.1148 51.5581 55.4124 51.9252 55.4124H64.6674C65.0345 55.4124 65.3321 55.1148 65.3321 54.7478V17.409C65.3321 17.042 65.0345 16.7444 64.6674 16.7444Z" fill="white"/>
<path d="M64.6674 0.713126H51.9252C51.5581 0.713126 51.2606 1.01067 51.2606 1.37772V14.2886C51.2606 14.6557 51.5581 14.9532 51.9252 14.9532H64.6674C65.0345 14.9532 65.3321 14.6557 65.3321 14.2886V1.37772C65.3321 1.01067 65.0345 0.713126 64.6674 0.713126Z" fill="white"/>
</svg>
